<?xml version="1.0" encoding="UTF-8" standalone="no"?>
<!-- Created with Inkscape (http://www.inkscape.org/) -->

<svg
   width="900"
   height="380"
   viewBox="0 0 238.125 100.54167"
   version="1.1"
   id="svg1"
   inkscape:export-filename="bitmapFinal.png"
   inkscape:export-xdpi="96"
   inkscape:export-ydpi="96"
   inkscape:version="1.3.2 (091e20e, 2023-11-25, custom)"
   sodipodi:docname="inomeado2.svg"
   xmlns:inkscape="http://www.inkscape.org/namespaces/inkscape"
   xmlns:sodipodi="http://sodipodi.sourceforge.net/DTD/sodipodi-0.dtd"
   xmlns="http://www.w3.org/2000/svg"
   xmlns:svg="http://www.w3.org/2000/svg">
  <sodipodi:namedview
     id="namedview1"
     pagecolor="#ffffff"
     bordercolor="#999999"
     borderopacity="1"
     inkscape:showpageshadow="0"
     inkscape:pageopacity="0"
     inkscape:pagecheckerboard="0"
     inkscape:deskcolor="#d1d1d1"
     inkscape:document-units="mm"
     inkscape:export-bgcolor="#00000000"
     inkscape:zoom="0.70710678"
     inkscape:cx="791.95959"
     inkscape:cy="-242.53762"
     inkscape:window-width="1920"
     inkscape:window-height="991"
     inkscape:window-x="-9"
     inkscape:window-y="-9"
     inkscape:window-maximized="1"
     inkscape:current-layer="layer3" />
  <defs
     id="defs1" />
  <g
     inkscape:groupmode="layer"
     id="layer3"
     inkscape:label="Layer 1"
     style="mix-blend-mode:normal"
     transform="translate(-3.7839768,-88.112603)">
    <g
       id="g4"
       transform="translate(2.2450642,84.564078)">
      <g
         id="g26"
         transform="matrix(0.11263967,0,0,0.12544863,14.514762,20.343495)">
        <path
           style="fill:#fdfdfd;fill-opacity:1;stroke:#ffffff;stroke-width:1.23591;stroke-opacity:0"
           d="m 88.5,435.51142 c -10.45,-2.62926 -25.75,-6.39511 -34,-8.36855 -12.364505,-2.95766 -15.395324,-4.04195 -17.25,-6.17124 -2.669124,-3.06434 -2.756314,-3.82246 -0.678572,-5.9002 2.270458,-2.27046 8.284721,-1.97566 21.058291,1.03222 9.848512,2.31909 11.460134,2.46397 14,1.25857 3.82809,-1.81679 6.08926,-6.77429 8.455938,-18.53923 2.447083,-12.16464 15.000126,-64.19645 18.895978,-78.32299 2.794895,-10.13442 3.472255,-14.46093 3.163735,-20.20778 -0.1007,-1.87575 -2.43276,-5.1537 -7.589467,-10.66778 C 83.09794,277.37242 77.884333,264.85236 74.417932,241.26475 72.187487,226.08736 72.905701,196.24894 75.926457,178.59266 79.987396,154.85651 89.184979,120.76096 100.36464,88 c 8.95124,-26.230753 10.98382,-29.5 18.34097,-29.5 1.88975,0 19.71656,4.009038 39.61515,8.908974 19.89858,4.899937 39.59613,9.654399 43.77233,10.565474 13.59051,2.964883 17.70999,7.590889 16.44151,18.463115 C 215.48467,122.5787 207.18897,166.18359 200.90659,189.09609 188.81482,233.19604 169.772,268.16033 148,286.23725 c -7.07601,5.87508 -18.17167,11.69238 -24.5,12.845 -2.45856,0.44779 -5.19172,1.92108 -7.09247,3.82315 -2.84982,2.85179 -3.66159,5.44846 -10.346,33.0946 -3.98945,16.5 -10.360342,42.55549 -14.157538,57.9011 C 88.106796,409.2467 85,422.13903 85,422.55072 c 0,0.41168 3.4875,1.49496 7.75,2.40729 17.24587,3.69121 23.69226,5.60885 25.93376,7.71463 2.71808,2.5535 2.90205,4.0987 0.74481,6.25593 -2.59268,2.59268 -10.52634,1.71613 -30.92857,-3.41715 z M 138,130.0857 c 3.575,-1.29946 10.5029,-4.03866 15.39533,-6.0871 8.56637,-3.58671 9.23203,-3.70647 18,-3.23826 6.40998,0.34229 12.15359,1.44569 19.40618,3.72808 5.66583,1.78304 10.48465,3.05876 10.70848,2.83492 2.401,-2.40099 6.20329,-30.006318 4.67206,-33.919986 -1.33661,-3.416263 -6.29064,-5.659431 -17.51465,-7.930579 -7.93155,-1.604927 -64.47196,-15.177049 -68.67862,-16.485811 -2.81202,-0.874869 -18.74108,43.199606 -20.663954,57.175596 l -0.572704,4.16256 5.873938,0.64898 c 3.23067,0.35693 6.54894,0.79408 7.37394,0.97144 0.825,0.17735 5.55,0.36304 10.5,0.41264 7.11972,0.0713 10.35798,-0.40342 15.5,-2.27248 z"
           id="path21"
           transform="translate(-5.6417056,0.80595712)" />
        <path
           style="fill:#fdfdfd;fill-opacity:1;stroke:#ffffff;stroke-width:1.23591;stroke-opacity:0"
           d="m 334.57143,438.92857 c -4.9486,-4.94859 2.5007,-9.16261 23.91168,-13.52666 5.4907,-1.11913 10.15031,-2.20199 10.35467,-2.40635 0.20436,-0.20437 -3.03274,-14.23697 -7.19355,-31.18357 -4.16082,-16.94659 -10.31079,-42.25564 -13.6666,-56.24231 -3.35581,-13.98668 -6.69408,-26.84863 -7.41837,-28.5821 -1.87019,-4.47598 -5.52853,-6.98322 -13.82723,-9.47649 C 314.03067,293.6951 303.7333,286.16787 292.98712,272.84406 267.40003,241.11953 252.41247,201.51455 241.58017,137 c -5.9647,-35.52438 -6.99942,-46.979592 -4.64149,-51.385425 1.70385,-3.183677 7.51425,-5.50944 21.56132,-8.630473 6.6,-1.466415 26.4,-6.272919 44,-10.681121 30.60502,-7.665516 32.17437,-7.9558 36,-6.658946 3.21887,1.091169 4.51781,2.332376 6.65158,6.355965 5.01403,9.454768 22.58145,64.69007 28.3814,89.23648 10.29814,43.58349 10.75828,79.38946 1.39784,108.77166 -3.59019,11.26951 -8.27742,19.11871 -16.50829,27.64463 C 352.46494,297.82393 352,298.63096 352,302.8008 c 0,2.4724 6.075,29.25428 13.5,59.5153 7.425,30.26102 13.5,55.73191 13.5,56.60197 0,2.09015 0.29188,2.05991 13.30023,-1.378 15.58569,-4.11906 21.0231,-4.71346 24.18223,-2.64352 3.11622,2.04183 3.1758,3.63642 0.23896,6.39543 -1.71843,1.61439 -10.81335,4.23845 -36.99692,10.67432 -35.41803,8.70568 -42.34203,9.77331 -45.15307,6.96227 z M 338.5,151.30853 c 2.2,-0.54549 6.6163,-2.37862 9.81401,-4.07361 C 354.30223,144.06077 357,140.61584 357,136.1433 357,133.47465 347.91856,102.21142 343.16043,88.5 337.3216,71.674361 335.81538,68.424464 334.10325,68.957752 c -3.97751,1.238902 -60.57639,14.865976 -68.94354,16.599247 -11.2498,2.330416 -15.50745,4.216021 -17.02115,7.538246 -1.59645,3.503816 -1.50158,4.757048 1.84738,24.404755 1.64059,9.625 2.9899,18.78857 2.99847,20.3635 0.0146,2.68979 0.21274,2.82568 3.26559,2.24015 1.7875,-0.34283 8.425,-0.88749 14.75,-1.21034 14.73372,-0.75207 22.80533,0.90078 36.92331,7.56087 15.03917,7.09467 19.00322,7.724 30.57669,4.85435 z"
           id="path22"
           transform="translate(-5.6417056,0.80595712)" />
        <path
           style="fill:#fdfdfd;fill-opacity:1;stroke:#ffffff;stroke-width:1.23591;stroke-opacity:0"
           d="M 242.66667,49.833333 C 242.3,49.466667 242,47.959184 242,46.483372 c 0,-6.931376 18.13097,-23.682035 23.43179,-21.647921 4.3482,1.668561 3.17607,6.461331 -3.3788,13.815728 -7.7528,8.698453 -16.70585,13.862628 -19.38632,11.182154 z"
           id="path23"
           transform="translate(-5.6417056,0.80595712)" />
        <path
           style="fill:#fdfdfd;fill-opacity:1;stroke:#ffffff;stroke-width:1.23591;stroke-opacity:0"
           d="m 200.82117,47.50494 c -5.53287,-3.664821 -14.47938,-12.975771 -15.79645,-16.439918 -2.19922,-5.784389 1.97446,-7.92936 8.25587,-4.242917 5.48972,3.221821 16.42106,14.640983 17.27587,18.046837 0.75503,3.00829 -0.87863,5.631058 -3.50746,5.631058 -0.93836,0 -3.74088,-1.347777 -6.22783,-2.99506 z"
           id="path25"
           transform="translate(-5.6417056,0.80595712)" />
        <path
           style="fill:#fdfdfd;fill-opacity:1;stroke:#ffffff;stroke-width:1.23591;stroke-opacity:0"
           d="m 222.27305,32.792765 c -2.52903,-3.861524 -2.4842,-24.7953721 0.0614,-28.6804845 3.68278,-5.620622 8.56135,-1.9372032 9.35584,7.0638415 0.5882,6.663848 -1.17341,20.996125 -2.82532,22.98655 -1.78439,2.150064 -4.68082,1.548143 -6.59194,-1.369907 z"
           id="path26"
           transform="translate(-5.6417056,0.80595712)" />
      </g>
      <g
         id="g3">
        <path
           style="font-size:24.2843px;line-height:0.9;font-family:Moki;-inkscape-font-specification:'Moki, Normal';text-align:center;text-anchor:middle;fill:#ffffff;stroke:#000000;stroke-width:0.562745;stroke-opacity:0"
           d="M 91.261177,25.831701 V 44.044926 H 110.73719 V 38.750948 H 97.235115 V 37.342459 H 110.73719 V 32.534168 H 97.235115 v -1.40849 h 13.502075 v -5.293977 z m 30.306803,18.213225 h 6.79961 l 8.54807,-18.213225 h -6.26535 l -5.68252,12.117865 -5.68253,-12.117865 h -6.26535 z m 17.58184,-18.213225 v 18.213225 h 19.47601 v -5.293978 h -13.50207 v -1.408489 h 13.50207 v -4.808291 h -13.50207 v -1.40849 h 13.50207 v -5.293977 z m 29.52971,0 h -5.97394 v 18.213225 h 5.97394 v -9.835142 l 8.3538,9.835142 h 5.97393 V 25.831701 h -5.97393 v 9.835141 z m 17.36327,0 v 5.293977 h 7.77098 v 12.919248 h 5.97394 V 31.125678 h 7.77097 v -5.293977 z m 36.96071,15.444815 c 5.46397,0 8.57236,-1.869892 8.57236,-7.1153 v -1.214215 c 0,-5.245409 -3.10839,-7.1153 -8.57236,-7.1153 h -12.8464 v 18.213225 h 5.97394 v -2.76841 z m 0,-10.150838 c 1.60276,0 2.59842,0.50997 2.59842,1.821323 v 1.214215 c 0,1.311352 -0.99566,1.821322 -2.59842,1.821322 h -6.87246 v -4.85686 z m 19.86456,-5.293977 h -5.97394 v 18.213225 h 18.23751 v -5.293978 h -12.26357 z m 22.36584,0 -8.54808,18.213225 h 6.26535 l 1.11708,-2.379862 h 9.1309 l 1.11708,2.379862 h 6.26535 l -8.54808,-18.213225 z m 1.09279,11.025072 2.30701,-4.905429 2.30701,4.905429 z m 22.07443,-11.025072 h -5.97394 v 18.213225 h 5.97394 v -9.835142 l 8.3538,9.835142 h 5.97394 V 25.831701 h -5.97394 v 9.835141 z"
           id="text3"
           inkscape:label="text3"
           transform="scale(0.76273846,1.3110654)"
           aria-label="EVENTPLAN" />
        <rect
           style="opacity:1;fill:#ffffff;fill-opacity:1;stroke:#000000;stroke-width:0.247442;stroke-opacity:0"
           id="rect3"
           width="161.16887"
           height="6.5663772"
           x="69.963783"
           y="65.368965" />
      </g>
    </g>
  </g>
</svg>
